<svg width="80" height="80" viewBox="0 0 80 80" fill="none" xmlns="http://www.w3.org/2000/svg">
<path d="M30.387 45.83L26.667 16.4934L22.947 45.8267H10.0003C8.16033 45.8267 6.66699 44.37 6.66699 42.5734C6.67754 41.6993 7.03446 40.8651 7.6594 40.2539C8.28434 39.6427 9.12624 39.3045 10.0003 39.3134H17.0537L20.0537 15.6934C20.5003 12.12 23.8337 9.5867 27.4837 10.0267C30.517 10.3934 32.9037 12.7267 33.2803 15.6934L36.277 39.3134H42.857L46.667 63.4667L50.4737 39.3167H70.0003C71.8403 39.3167 73.3337 40.7767 73.3337 42.5767C73.3337 44.3767 71.8403 45.8334 70.0003 45.8334H56.1937L53.257 64.4567C53.0273 65.839 52.3633 67.1122 51.3611 68.0915C50.359 69.0709 49.0709 69.7055 47.6837 69.9034C44.0437 70.4534 40.6403 68.0134 40.077 64.4567L37.1437 45.8334H30.3837L30.387 45.83Z" fill="#F5F5F5"/>
</svg>
