<svg width="85" height="85" viewBox="0 0 85 85" fill="none" xmlns="http://www.w3.org/2000/svg">
<path d="M29.2191 18.5938C29.2191 15.0713 30.6183 11.6932 33.1091 9.20249C35.5998 6.71177 38.9779 5.3125 42.5003 5.3125C46.0227 5.3125 49.4009 6.71177 51.8916 9.20249C54.3823 11.6932 55.7816 15.0713 55.7816 18.5938C55.7816 22.1162 54.3823 25.4943 51.8916 27.985C49.4009 30.4757 46.0227 31.875 42.5003 31.875C38.9779 31.875 35.5998 30.4757 33.1091 27.985C30.6183 25.4943 29.2191 22.1162 29.2191 18.5938ZM34.5316 37.1875C32.4181 37.1875 30.3912 38.0271 28.8968 39.5215C27.4024 41.0159 26.5628 43.0428 26.5628 45.1562V58.4375C26.5628 62.6644 28.2419 66.7182 31.2308 69.707C34.2197 72.6959 38.2734 74.375 42.5003 74.375C46.7272 74.375 50.781 72.6959 53.7698 69.707C56.7587 66.7182 58.4378 62.6644 58.4378 58.4375V45.1562C58.4378 43.0428 57.5983 41.0159 56.1038 39.5215C54.6094 38.0271 52.5825 37.1875 50.4691 37.1875H34.5316ZM21.5478 42.3406C21.3486 43.2659 21.2489 44.2098 21.2503 45.1562V58.4375C21.2498 61.2808 21.8199 64.0952 22.9267 66.7142C24.0336 69.3331 25.6549 71.7033 27.6944 73.6844L27.1631 73.8331C23.0814 74.9252 18.7331 74.3517 15.074 72.2388C11.415 70.1259 8.74476 66.6464 7.65032 62.5653L5.58375 54.8622C5.31303 53.8513 5.24408 52.797 5.38083 51.7594C5.51758 50.7219 5.85737 49.7215 6.38077 48.8152C6.90418 47.909 7.60096 47.1148 8.43134 46.4778C9.26171 45.8409 10.2094 45.3738 11.2203 45.1031L21.5478 42.3406ZM57.3009 73.6844C59.3414 71.7038 60.9636 69.3338 62.0714 66.7148C63.1793 64.0958 63.7502 61.2811 63.7503 58.4375V45.1562C63.7468 44.1858 63.6476 43.2473 63.4528 42.3406L73.775 45.1031C74.7865 45.3737 75.7347 45.8411 76.5655 46.4783C77.3963 47.1156 78.0933 47.9104 78.6168 48.8172C79.1403 49.724 79.4799 50.7251 79.6163 51.7633C79.7526 52.8014 79.6831 53.8563 79.4116 54.8675L77.3503 62.5653C76.7967 64.6313 75.8329 66.5647 74.5164 68.2504C73.1998 69.936 71.5574 71.3394 69.6871 72.377C67.8167 73.4145 65.7566 74.065 63.6296 74.2896C61.5026 74.5142 59.3468 74.3084 57.3009 73.6844ZM5.31281 26.5625C5.31281 23.7446 6.43223 21.0421 8.42481 19.0495C10.4174 17.0569 13.1199 15.9375 15.9378 15.9375C18.7557 15.9375 21.4583 17.0569 23.4508 19.0495C25.4434 21.0421 26.5628 23.7446 26.5628 26.5625C26.5628 29.3804 25.4434 32.0829 23.4508 34.0755C21.4583 36.0681 18.7557 37.1875 15.9378 37.1875C13.1199 37.1875 10.4174 36.0681 8.42481 34.0755C6.43223 32.0829 5.31281 29.3804 5.31281 26.5625ZM58.4378 26.5625C58.4378 23.7446 59.5572 21.0421 61.5498 19.0495C63.5424 17.0569 66.2449 15.9375 69.0628 15.9375C71.8807 15.9375 74.5832 17.0569 76.5758 19.0495C78.5684 21.0421 79.6878 23.7446 79.6878 26.5625C79.6878 29.3804 78.5684 32.0829 76.5758 34.0755C74.5832 36.0681 71.8807 37.1875 69.0628 37.1875C66.2449 37.1875 63.5424 36.0681 61.5498 34.0755C59.5572 32.0829 58.4378 29.3804 58.4378 26.5625Z" fill="#F5F5F5"/>
</svg>
