<svg width="214" height="47" viewBox="0 0 214 47" fill="none" xmlns="http://www.w3.org/2000/svg">
<path d="M200.909 45.641C199.259 45.641 197.195 43.9313 197.195 42.0448C197.195 40.0404 200.674 37.977 203.091 36.3263C206.628 33.9092 205.272 33.1428 202.442 31.0204C200.32 29.4876 197.962 27.9548 197.962 23.9459C197.962 18.4632 203.503 9.62012 209.517 9.62012C211.698 9.62012 213.82 11.3298 213.82 13.6879C213.82 16.8715 205.862 19.0528 205.862 24.3586C205.862 26.8347 213.113 30.9615 213.113 35.7957C213.113 41.0426 205.626 45.641 200.909 45.641Z" fill="white"/>
<path d="M182.039 35.0292C187.345 35.0292 188.053 24.5354 191.885 24.5354C194.066 24.5354 195.245 26.9525 195.245 29.0159C195.245 35.4419 188.76 42.7521 182.157 42.7521C174.788 42.7521 170.779 34.6165 170.779 28.1316C170.779 19.7011 176.557 6.20068 186.579 6.20068C191.472 6.20068 195.54 10.0916 195.54 14.9848C195.54 16.8714 194.538 20.1138 192.356 20.1138C188.76 20.1138 190.942 14.6311 186.992 14.6311C180.035 14.6311 174.906 35.0292 182.039 35.0292Z" fill="white"/>
<path d="M157.999 20.5266C158.53 16.223 167.727 14.4544 166.783 21.1751C166.312 25.4787 166.135 31.551 166.312 35.1472C166.607 39.5687 165.486 40.0404 163.01 40.2762C161.183 40.512 159.414 38.5665 158.766 35.9136C157.351 31.0794 157.174 23.1206 157.999 20.5266ZM162.657 14.3364C160.357 14.2185 158.766 12.332 158.943 9.79699C159.237 7.14406 161.006 5.19858 163.423 5.4344C165.722 5.72917 167.668 7.55674 167.373 10.1507C167.137 12.6857 164.897 14.5723 162.657 14.3364Z" fill="white"/>
<path d="M138.639 28.7212C136.222 28.4854 130.326 28.8981 130.326 25.243C130.326 21.7057 134.099 22.1184 136.457 22.1184H138.757C139.641 17.4021 142.53 0.42334 148.661 0.42334C150.665 0.42334 152.552 2.133 152.552 4.13744C152.552 5.90606 148.661 18.5222 148.012 21.6468C150.017 21.6468 155.028 21.1751 155.028 24.3586C155.028 27.4243 149.368 27.3063 147.069 27.6011C146.833 28.6623 146.715 29.6645 146.715 30.6667C146.715 33.3786 147.6 39.3919 149.486 41.3374C150.017 41.809 150.429 42.3986 150.429 43.165C150.429 45.2284 148.307 46.1716 146.597 46.1716C139.405 46.1716 138.992 33.7323 138.639 28.7212Z" fill="white"/>
<path d="M116.884 31.8458C117.591 36.739 123.015 32.2585 125.196 29.7234C126.493 28.1317 128.38 26.5989 130.03 28.2496C130.974 29.0749 131.327 30.5488 130.738 31.9637C129.971 33.6734 128.439 35.9726 126.139 37.8001C118.652 43.8724 109.514 40.8657 109.278 30.7257C109.22 27.4242 109.809 24.0639 110.693 21.7057C111.813 18.699 113.582 16.1051 116.353 14.6312C121.836 11.6835 127.967 14.1006 127.967 20.5856C127.967 26.7168 121.954 30.0772 116.884 31.8458ZM118.239 25.8914C119.831 25.184 122.307 23.1206 122.307 21.2341C122.307 20.7624 121.836 20.2318 121.305 20.2318C119.595 20.2318 118.298 24.6534 118.239 25.8914Z" fill="white"/>
<path d="M100.324 6.2598C102.034 2.42779 107.929 2.95837 107.104 8.32318C104.923 22.0005 105.099 31.669 105.748 40.1583C105.866 41.809 105.04 43.106 103.036 43.2829C92.837 44.1672 98.4376 10.6813 100.324 6.2598Z" fill="white"/>
<path d="M86.1757 13.2753H86.4705C87.0601 9.79697 89.1234 0.482243 93.8987 0.0106104C96.9054 -0.166253 97.6718 1.89714 97.2591 4.01948C95.7852 10.5044 91.4226 26.7168 92.6607 35.324C93.2502 39.4508 95.3726 38.6844 95.5494 40.6299C95.7263 41.8679 94.5472 42.9881 93.1323 43.1649C89.1824 43.5186 87.6496 39.6277 86.3526 37.0927C84.8198 38.5076 83.6407 39.8635 81.2236 40.0993C75.3872 40.6889 72.8522 33.6144 72.4395 29.5465C71.6731 23.4153 74.267 13.6879 82.4617 12.8626C83.8176 12.7447 84.8788 12.9805 86.1757 13.2753ZM84.4071 19.7012C80.3393 20.1139 79.8677 28.7801 80.1035 31.3152C80.2803 32.2584 80.752 34.6166 82.2258 34.4397C85.2325 34.2039 88.5339 20.7035 84.4071 19.7012Z" fill="white"/>
<path d="M52.0573 39.5097C50.6424 39.5097 49.2275 38.5665 49.2275 37.0337C49.2275 34.8524 49.4634 32.6711 49.6992 30.5487C49.8171 29.1928 50.0529 22.9437 49.5813 19.5833C49.1096 16.046 55.005 12.6267 55.8304 17.8736C56.0072 19.1706 56.0072 20.6445 56.1841 21.5288C57.7759 19.5833 60.8415 15.3976 63.5534 15.3976C66.0294 15.3976 68.0339 16.5177 68.8003 19.1117C70.2152 23.8869 68.8003 31.9047 68.8003 34.7934C68.8003 36.7978 69.4488 37.6232 69.4488 39.156C69.4488 41.0425 67.6801 42.0448 66.0294 42.0448C62.4922 42.0448 61.0183 39.0381 61.0183 33.7912C61.0183 32.3763 61.1952 30.5487 61.431 28.7801C62.1385 23.2974 61.49 21.4109 60.0751 23.3563C57.8348 26.5399 56.5378 30.6077 55.9483 34.3807C55.4767 37.2695 54.5924 39.5097 52.0573 39.5097Z" fill="white"/>
<path d="M37.096 20.5266C37.6266 16.223 46.8234 14.4544 45.8801 21.1751C45.4085 25.4787 45.2316 31.551 45.4085 35.1472C45.7032 39.5687 44.5831 40.0404 42.1071 40.2762C40.2795 40.512 38.5109 38.5665 37.8624 35.9136C36.4475 31.0794 36.2706 23.1206 37.096 20.5266ZM41.7533 14.3364C39.4541 14.2185 37.8624 12.332 38.0392 9.79699C38.334 7.14406 40.1026 5.19858 42.5197 5.4344C44.8189 5.72917 46.7644 7.55674 46.4696 10.1507C46.2338 12.6857 43.9936 14.5723 41.7533 14.3364Z" fill="white"/>
<path d="M9.66845 18.994H9.84531C11.0244 17.5791 12.793 14.8672 14.8564 14.8672C18.3347 14.8672 18.3347 20.232 18.5705 22.5312L18.7474 22.6491C20.9876 19.2888 25.7039 10.7994 30.3023 10.7994C32.5426 10.7994 34.0754 13.1575 34.0754 15.2799C34.0754 20.8216 32.8963 26.1864 32.8963 31.6691C32.8963 34.322 34.4291 36.9749 34.4291 39.3921C34.4291 42.045 32.3068 43.342 29.9486 43.342C25.2913 43.342 24.0532 38.6846 24.0532 34.7347C24.0532 29.3699 25.7039 24.4178 26.2935 19.1708C24.5838 21.4111 19.219 31.5512 17.1556 31.5512C14.9154 31.5512 14.2669 28.1318 14.031 25.0073C13.7363 20.4089 12.7341 19.3477 10.5528 24.3588C8.8431 28.4856 8.31251 34.9116 6.42598 40.0995C6.0133 41.2786 4.83423 42.2218 3.47828 42.2218C0.825356 42.2218 0 40.1585 0 37.8003C0 35.3832 0.58954 32.7303 0.884309 30.3721C1.5328 24.6536 1.4149 19.4067 1.4149 13.865C1.4149 11.2121 3.00665 9.03076 5.65958 9.03076C11.0833 9.03076 10.0222 15.3978 9.66845 18.994Z" fill="white"/>
<path d="M39.5577 9.95923C39.5577 11.7907 40.8444 13.2754 42.4317 13.2754C44.0189 13.2754 45.3057 11.7907 45.3057 9.95923C45.3057 8.12776 44.0189 6.64307 42.4317 6.64307C40.8444 6.64307 39.5577 8.12776 39.5577 9.95923Z" fill="black"/>
<path d="M39.705 9.95923C39.705 8.18865 40.9449 6.79045 42.4317 6.79045C43.9184 6.79045 45.1583 8.18865 45.1583 9.95923C45.1583 11.7298 43.9184 13.128 42.4317 13.128V13.2754C44.0189 13.2754 45.3057 11.7907 45.3057 9.95923C45.3057 8.12776 44.0189 6.64307 42.4317 6.64307C40.8444 6.64307 39.5577 8.12776 39.5577 9.95923C39.5577 11.7907 40.8444 13.2754 42.4317 13.2754V13.128C40.9449 13.128 39.705 11.7298 39.705 9.95923Z" fill="white"/>
<path d="M160.414 9.95923C160.414 11.7907 161.701 13.2754 163.288 13.2754C164.875 13.2754 166.162 11.7907 166.162 9.95923C166.162 8.12776 164.875 6.64307 163.288 6.64307C161.701 6.64307 160.414 8.12776 160.414 9.95923Z" fill="black"/>
<path d="M160.561 9.95923C160.561 8.18865 161.801 6.79045 163.288 6.79045C164.775 6.79045 166.015 8.18865 166.015 9.95923C166.015 11.7298 164.775 13.128 163.288 13.128V13.2754C164.875 13.2754 166.162 11.7907 166.162 9.95923C166.162 8.12776 164.875 6.64307 163.288 6.64307C161.701 6.64307 160.414 8.12776 160.414 9.95923C160.414 11.7907 161.701 13.2754 163.288 13.2754V13.128C161.801 13.128 160.561 11.7298 160.561 9.95923Z" fill="white"/>
<path d="M42.3583 8.85355C42.3583 9.34194 42.7543 9.73786 43.2426 9.73786C43.731 9.73786 44.127 9.34194 44.127 8.85355C44.127 8.36516 43.731 7.96924 43.2426 7.96924C42.7543 7.96924 42.3583 8.36516 42.3583 8.85355Z" fill="white"/>
<path d="M42.5057 8.85355C42.5057 8.44656 42.8357 8.11662 43.2426 8.11662C43.6496 8.11662 43.9796 8.44656 43.9796 8.85355C43.9796 9.26054 43.6496 9.59047 43.2426 9.59047V9.73786C43.731 9.73786 44.127 9.34194 44.127 8.85355C44.127 8.36516 43.731 7.96924 43.2426 7.96924C42.7543 7.96924 42.3583 8.36516 42.3583 8.85355C42.3583 9.34194 42.7543 9.73786 43.2426 9.73786V9.59047C42.8357 9.59047 42.5057 9.26054 42.5057 8.85355Z" fill="white"/>
<path d="M163.214 8.85355C163.214 9.34194 163.61 9.73786 164.098 9.73786C164.587 9.73786 164.982 9.34194 164.982 8.85355C164.982 8.36516 164.587 7.96924 164.098 7.96924C163.61 7.96924 163.214 8.36516 163.214 8.85355Z" fill="white"/>
<path d="M163.361 8.85355C163.361 8.44656 163.691 8.11662 164.098 8.11662C164.505 8.11662 164.835 8.44656 164.835 8.85355C164.835 9.26054 164.505 9.59047 164.098 9.59047V9.73786C164.587 9.73786 164.982 9.34194 164.982 8.85355C164.982 8.36516 164.587 7.96924 164.098 7.96924C163.61 7.96924 163.214 8.36516 163.214 8.85355C163.214 9.34194 163.61 9.73786 164.098 9.73786V9.59047C163.691 9.59047 163.361 9.26054 163.361 8.85355Z" fill="white"/>
</svg>
