<svg width="185" height="40" viewBox="0 0 185 40" fill="none" xmlns="http://www.w3.org/2000/svg">
<path d="M173.83 39.4891C172.401 39.4891 170.616 38.0099 170.616 36.3777C170.616 34.6434 173.626 32.8581 175.717 31.4299C178.777 29.3386 177.604 28.6755 175.156 26.8392C173.32 25.513 171.279 24.1868 171.279 20.7183C171.279 15.9746 176.074 8.32343 181.277 8.32343C183.164 8.32343 185 9.80265 185 11.843C185 14.5974 178.114 16.4847 178.114 21.0754C178.114 23.2177 184.388 26.7882 184.388 30.9708C184.388 35.5105 177.91 39.4891 173.83 39.4891Z" fill="white"/>
<path d="M157.503 30.3078C162.094 30.3078 162.706 21.2284 166.021 21.2284C167.909 21.2284 168.929 23.3197 168.929 25.105C168.929 30.6648 163.318 36.9898 157.605 36.9898C151.229 36.9898 147.761 29.9507 147.761 24.3399C147.761 17.0458 152.759 5.36499 161.431 5.36499C165.664 5.36499 169.184 8.7315 169.184 12.9651C169.184 14.5974 168.317 17.4028 166.43 17.4028C163.318 17.4028 165.205 12.6591 161.788 12.6591C155.769 12.6591 151.331 30.3078 157.503 30.3078Z" fill="white"/>
<path d="M136.703 17.7599C137.162 14.0363 145.119 12.5061 144.303 18.3209C143.895 22.0445 143.742 27.2983 143.895 30.4098C144.15 34.2353 143.181 34.6434 141.039 34.8474C139.458 35.0515 137.927 33.3682 137.366 31.0729C136.142 26.8902 135.989 20.0042 136.703 17.7599ZM140.733 12.404C138.743 12.302 137.366 10.6698 137.519 8.47645C137.774 6.1811 139.305 4.49785 141.396 4.70188C143.385 4.95692 145.068 6.53816 144.813 8.78249C144.609 10.9758 142.671 12.6081 140.733 12.404Z" fill="white"/>
<path d="M119.952 24.8499C117.861 24.6459 112.76 25.003 112.76 21.8405C112.76 18.78 116.024 19.1371 118.065 19.1371H120.054C120.819 15.0565 123.318 0.366241 128.623 0.366241C130.357 0.366241 131.99 1.84546 131.99 3.57972C131.99 5.10996 128.623 16.0256 128.062 18.729C129.796 18.729 134.132 18.321 134.132 21.0754C134.132 23.7278 129.235 23.6258 127.246 23.8808C127.042 24.7989 126.94 25.6661 126.94 26.5332C126.94 28.8796 127.705 34.0823 129.337 35.7656C129.796 36.1737 130.153 36.6837 130.153 37.3468C130.153 39.1321 128.317 39.9482 126.838 39.9482C120.615 39.9482 120.258 29.1856 119.952 24.8499Z" fill="white"/>
<path d="M101.129 27.5534C101.741 31.787 106.434 27.9104 108.321 25.7171C109.444 24.3399 111.076 23.0137 112.504 24.4419C113.32 25.156 113.626 26.4312 113.116 27.6554C112.453 29.1346 111.127 31.1239 109.138 32.7052C102.66 37.959 94.7534 35.3576 94.5494 26.5842C94.4984 23.7278 95.0085 20.8204 95.7736 18.7801C96.7427 16.1787 98.273 13.9343 100.67 12.6591C105.414 10.1087 110.719 12.2001 110.719 17.8109C110.719 23.1157 105.516 26.0231 101.129 27.5534ZM102.303 22.4016C103.68 21.7895 105.822 20.0042 105.822 18.372C105.822 17.9639 105.414 17.5049 104.955 17.5049C103.476 17.5049 102.354 21.3304 102.303 22.4016Z" fill="white"/>
<path d="M86.8019 5.41601C88.2811 2.10051 93.3819 2.55958 92.6677 7.20128C90.7805 19.0351 90.9335 27.4003 91.4946 34.7454C91.5966 36.1737 90.8825 37.2958 89.1482 37.4489C80.3239 38.214 85.1696 9.24159 86.8019 5.41601Z" fill="white"/>
<path d="M74.56 11.4859H74.815C75.3251 8.47646 77.1103 0.417243 81.242 0.00918026C83.8434 -0.143844 84.5065 1.64143 84.1494 3.4777C82.8742 9.08855 79.0996 23.1157 80.1708 30.5628C80.6809 34.1333 82.5172 33.4702 82.6702 35.1535C82.8232 36.2247 81.803 37.1938 80.5789 37.3468C77.1613 37.6529 75.8351 34.2864 74.713 32.093C73.3868 33.3172 72.3666 34.4904 70.2753 34.6944C65.2255 35.2045 63.0322 29.0836 62.6752 25.564C62.0121 20.2592 64.2564 11.843 71.3465 11.1289C72.5196 11.0268 73.4378 11.2309 74.56 11.4859ZM73.0297 17.0458C69.5102 17.4028 69.1021 24.9009 69.3062 27.0943C69.4592 27.9104 69.8672 29.9507 71.1424 29.7977C73.7438 29.5936 76.6003 17.9129 73.0297 17.0458Z" fill="white"/>
<path d="M45.0402 34.1844C43.816 34.1844 42.5918 33.3682 42.5918 32.042C42.5918 30.1548 42.7958 28.2675 42.9999 26.4312C43.1019 25.258 43.3059 19.8512 42.8978 16.9438C42.4898 13.8833 47.5906 10.9249 48.3047 15.4645C48.4577 16.5867 48.4577 17.8619 48.6107 18.627C49.9879 16.9438 52.6403 13.3222 54.9867 13.3222C57.129 13.3222 58.8633 14.2914 59.5264 16.5357C60.7505 20.6673 59.5264 27.6044 59.5264 30.1038C59.5264 31.838 60.0874 32.5521 60.0874 33.8783C60.0874 35.5106 58.5572 36.3777 57.129 36.3777C54.0685 36.3777 52.7933 33.7763 52.7933 29.2366C52.7933 28.0124 52.9464 26.4312 53.1504 24.901C53.7625 20.1572 53.2014 18.525 51.9772 20.2083C50.0389 22.9627 48.9168 26.4822 48.4067 29.7467C47.9986 32.2461 47.2335 34.1844 45.0402 34.1844Z" fill="white"/>
<path d="M32.0957 17.7599C32.5548 14.0363 40.512 12.5061 39.6959 18.3209C39.2878 22.0445 39.1348 27.2983 39.2878 30.4098C39.5429 34.2353 38.5737 34.6434 36.4314 34.8474C34.8502 35.0515 33.3199 33.3682 32.7588 31.0729C31.5346 26.8902 31.3816 20.0042 32.0957 17.7599ZM36.1253 12.404C34.136 12.302 32.7588 10.6698 32.9119 8.47645C33.1669 6.1811 34.6971 4.49785 36.7884 4.70188C38.7777 4.95692 40.461 6.53816 40.206 8.78249C40.0019 10.9758 38.0636 12.6081 36.1253 12.404Z" fill="white"/>
<path d="M8.36526 16.4337H8.51829C9.53844 15.2095 11.0687 12.8631 12.8539 12.8631C15.8634 12.8631 15.8634 17.5048 16.0674 19.4941L16.2205 19.5962C18.1587 16.6887 22.2394 9.34361 26.218 9.34361C28.1563 9.34361 29.4825 11.3839 29.4825 13.2202C29.4825 18.0149 28.4623 22.6566 28.4623 27.4003C28.4623 29.6957 29.7885 31.991 29.7885 34.0824C29.7885 36.3777 27.9522 37.4999 25.9119 37.4999C21.8823 37.4999 20.8111 33.4703 20.8111 30.0527C20.8111 25.411 22.2394 21.1264 22.7494 16.5867C21.2702 18.525 16.6285 27.2983 14.8432 27.2983C12.905 27.2983 12.3439 24.3399 12.1398 21.6365C11.8848 17.6579 11.0177 16.7397 9.13038 21.0754C7.65116 24.6459 7.19209 30.2058 5.55984 34.6944C5.20279 35.7146 4.18263 36.5307 3.00945 36.5307C0.714108 36.5307 0 34.7455 0 32.7051C0 30.6138 0.510077 28.3185 0.765116 26.2782C1.3262 21.3304 1.22418 16.7907 1.22418 11.996C1.22418 9.70066 2.60139 7.81338 4.89674 7.81338C9.58945 7.81338 8.67131 13.3222 8.36526 16.4337Z" fill="white"/>
</svg>
