<svg width="80" height="80" viewBox="0 0 80 80" fill="none" xmlns="http://www.w3.org/2000/svg">
<path fill-rule="evenodd" clip-rule="evenodd" d="M29.8737 61.5633C20.0637 54.0466 6.66699 41.63 6.66699 29.89C6.66699 10.2766 25.0003 2.95329 40.0003 18.1C55.0003 2.95329 73.3337 10.2766 73.3337 29.89C73.3337 41.63 59.9337 54.0466 50.127 61.5633C45.687 64.9633 43.467 66.6666 40.0003 66.6666C36.5337 66.6666 34.3137 64.9666 29.8737 61.5633ZM55.0003 20.8333C55.6634 20.8333 56.2993 21.0967 56.7681 21.5655C57.2369 22.0344 57.5003 22.6703 57.5003 23.3333V27.5H61.667C62.33 27.5 62.9659 27.7634 63.4348 28.2322C63.9036 28.701 64.167 29.3369 64.167 30C64.167 30.663 63.9036 31.2989 63.4348 31.7677C62.9659 32.2366 62.33 32.5 61.667 32.5H57.5003V36.6666C57.5003 37.3297 57.2369 37.9656 56.7681 38.4344C56.2993 38.9032 55.6634 39.1666 55.0003 39.1666C54.3373 39.1666 53.7014 38.9032 53.2326 38.4344C52.7637 37.9656 52.5003 37.3297 52.5003 36.6666V32.5H48.3337C47.6706 32.5 47.0347 32.2366 46.5659 31.7677C46.097 31.2989 45.8337 30.663 45.8337 30C45.8337 29.3369 46.097 28.701 46.5659 28.2322C47.0347 27.7634 47.6706 27.5 48.3337 27.5H52.5003V23.3333C52.5003 22.6703 52.7637 22.0344 53.2326 21.5655C53.7014 21.0967 54.3373 20.8333 55.0003 20.8333Z" fill="#F5F5F5"/>
</svg>
